Write your comments on quality of this movie.

General
Format                           : CDXA/MPEG-PS
File size                        : 568 MiB
Duration                         : 56mn 14s
Overall bit rate                 : 1 412 Kbps

Video
ID                               : 224 (0xE0)
Format                           : MPEG Video
Format version                   : Version 1
Format settings, BVOP            : Yes
Format settings, Matrix          : Default
Duration                         : 56mn 14s
Bit rate mode                    : Constant
Bit rate                         : 1 132 Kbps
Nominal bit rate                 : 1 120 Kbps
Width                            : 352 pixels
Height                           : 288 pixels
Display aspect ratio             : 4:3
Frame rate                       : 25.000 fps
Resolution                       : 8 bits
Scan type                        : Progressive
Bits/(Pixel*Frame)               : 0.447
Stream size                      : 455 MiB (80%)

Audio
ID                               : 192 (0xC0)
Format                           : MPEG Audio
Format version                   : Version 1
Format profile                   : Layer 2
Duration                         : 56mn 14s
Bit rate mode                    : Constant
Bit rate                         : 224 Kbps
Channel(s)                       : 2 channels
Sampling rate                    : 44.1 KHz
Video delay                      : -80ms
Stream size                      : 90.1 MiB (16%)



Please seed guys i will not reseed.


Torrent uploaded by ASHISH THE GREAT.

Other uploaded torrents by me

1.http://thepiratebay.org/torrent/4988511/Death_of_Hinduism(Should_read_by_every_HINDU)

2.http://thepiratebay.org/torrent/4888474/The_Incredibles_in_HINDI_(Hum_hain_lajawab)

3.http://thepiratebay.org/torrent/4886918/Transformers_in_HINDI

4.http://thepiratebay.org/torrent/5050749/300_in_Hindi

5.http://thepiratebay.org/torrent/5057430/Open_Season_in_HINDI

6.http://thepiratebay.org/torrent/5159007/The_Ring_in_HINDI_(Dvdrip)



Enjoy bhai bandhuo
